<svg width="36" height="44" viewBox="0 0 36 44" fill="none" xmlns="http://www.w3.org/2000/svg">
<path d="M12 15.8001H32H34V17.8001V27.4001C34 35.6453 26.6208 42 18 42C9.3792 42 2 35.6453 2 27.4001V17.8001V15.8001H4H5.33333V13.6002C5.33333 13.6001 5.33333 13.6001 5.33333 13.6001C5.3333 11.2663 6.10003 9.0045 7.50686 7.09904C8.91136 5.19674 10.8858 3.73913 13.1603 2.87894C15.4342 2.019 17.9292 1.78502 20.3396 2.19931C22.7503 2.61363 24.9964 3.66299 26.788 5.24283L28.4549 6.71279L26.8179 8.21602L24.9512 9.93014L23.6257 11.1474L22.2758 9.95717C21.4418 9.22185 20.3614 8.7052 19.1616 8.49903C17.9616 8.29284 16.723 8.41151 15.6082 8.83314C14.494 9.25453 13.5756 9.95036 12.9459 10.8033C12.3184 11.6532 12 12.6259 12 13.6001V15.8001ZM8.66667 27.4001C8.66667 31.7267 12.6519 35.6 18 35.6C23.3481 35.6 27.3333 31.7267 27.3333 27.4001V22.2001H8.66667V27.4001Z" fill="#4B1EFF" stroke="#4B1EFF" stroke-width="4"/>
</svg>
